<svg width="14" height="15" viewBox="0 0 14 15" fill="none" xmlns="http://www.w3.org/2000/svg">
<path d="M11.5332 9.15283C11.5604 9.17589 11.5897 9.19687 11.6201 9.21631C11.612 9.2111 11.6036 9.20617 11.5957 9.20068L11.5332 9.15283ZM7.25977 0.657715C8.79799 0.7296 10.2536 1.324 11.3418 2.32666C12.5018 3.39557 13.1495 4.84011 13.1514 6.34033L13.1426 6.65479C13.106 7.28159 12.955 7.89886 12.6963 8.48096L12.5586 8.76904L12.5547 8.77588C12.529 8.82882 12.4912 8.8782 12.4424 8.92041C12.3933 8.96275 12.3338 8.9975 12.2676 9.02002C12.2014 9.04252 12.1301 9.05228 12.0586 9.04932C11.9871 9.04633 11.9177 9.0301 11.8545 9.00244C11.7914 8.97478 11.7365 8.93664 11.6924 8.89111C11.6484 8.84567 11.6159 8.79399 11.5957 8.73975C11.5756 8.68559 11.5672 8.62871 11.5713 8.57275C11.5755 8.51684 11.5917 8.46076 11.6201 8.40869L11.3574 8.26416L11.6211 8.40869L11.624 8.40186L11.7559 8.12354C12.0396 7.46695 12.1633 6.75817 12.1162 6.04834C12.0623 5.23711 11.7868 4.45333 11.3174 3.77002C10.8481 3.08689 10.2006 2.52626 9.4375 2.13916C8.67461 1.75227 7.81935 1.55029 6.95117 1.55029C6.08299 1.5503 5.22773 1.75226 4.46484 2.13916C3.70176 2.52626 3.05423 3.08689 2.58496 3.77002C2.11558 4.45333 1.84 5.23711 1.78613 6.04834C1.73904 6.75816 1.86273 7.46696 2.14648 8.12354L2.27832 8.40186C2.32512 8.5029 2.328 8.61496 2.28711 8.71729C2.24476 8.82301 2.15549 8.91679 2.03125 8.97119C1.90663 9.02568 1.76174 9.03334 1.62988 8.9917C1.53152 8.96058 1.4499 8.90524 1.3916 8.83643L1.34082 8.76318C0.949937 8.00517 0.748771 7.17725 0.750977 6.34033L0.758789 6.05908C0.835751 4.6605 1.4731 3.32871 2.56055 2.32666C3.7213 1.25716 5.29999 0.651691 6.95117 0.649902L7.25977 0.657715ZM11.3447 8.91357C11.3602 8.94468 11.3786 8.97452 11.3984 9.00342C11.393 8.99553 11.387 8.98805 11.3818 8.97998L11.3447 8.91357ZM11.2705 8.62451C11.2715 8.65555 11.275 8.68662 11.2803 8.71729C11.2792 8.71111 11.2782 8.70493 11.2773 8.69873L11.2705 8.62451ZM11.3242 8.33252C11.3145 8.35579 11.3069 8.37978 11.2998 8.40381L11.2822 8.47607C11.2867 8.45178 11.2918 8.42755 11.2988 8.40381L11.3242 8.33252ZM2.54492 8.26416C2.55578 8.28657 2.56586 8.30944 2.57422 8.33252L2.59473 8.40186C2.58302 8.35496 2.56651 8.30871 2.54492 8.26416C2.50378 8.18407 2.46551 8.10291 2.42969 8.021C2.46551 8.10291 2.50378 8.18407 2.54492 8.26416ZM11.4658 8.0376L11.3574 8.26416C11.3985 8.18419 11.4359 8.10279 11.4717 8.021C11.4693 8.02636 11.4682 8.03224 11.4658 8.0376ZM2.39062 7.92529C2.36991 7.87461 2.34877 7.82421 2.33008 7.77295C2.34877 7.82421 2.36991 7.87461 2.39062 7.92529ZM11.5713 7.77295C11.5526 7.82422 11.5315 7.8746 11.5107 7.92529C11.5315 7.87461 11.5526 7.82422 11.5713 7.77295ZM2.29102 7.65576C2.27601 7.61056 2.26051 7.5656 2.24707 7.52002C2.26051 7.5656 2.27601 7.61056 2.29102 7.65576ZM11.6543 7.52002C11.6409 7.56551 11.6263 7.61065 11.6113 7.65576C11.6263 7.61065 11.6409 7.56551 11.6543 7.52002ZM2.21582 7.40479C2.20235 7.35382 2.18926 7.30282 2.17773 7.25146C2.18926 7.30282 2.20235 7.35382 2.21582 7.40479ZM11.7236 7.25146C11.7121 7.30283 11.699 7.35381 11.6855 7.40479C11.699 7.35381 11.7121 7.30283 11.7236 7.25146ZM2.15625 7.14893C2.14385 7.08635 2.13353 7.02347 2.12402 6.96045C2.13353 7.02347 2.14385 7.08635 2.15625 7.14893ZM11.7773 6.96045C11.7678 7.02349 11.7575 7.08634 11.7451 7.14893C11.7575 7.08634 11.7678 7.02349 11.7773 6.96045ZM2.08594 6.62646C2.09198 6.71435 2.10166 6.80188 2.11328 6.88916C2.10166 6.80188 2.09198 6.71435 2.08594 6.62646ZM11.8096 6.68506C11.8039 6.75324 11.7981 6.82135 11.7891 6.88916C11.7981 6.82135 11.8039 6.75324 11.8096 6.68506ZM11.7939 5.8208L11.8174 6.06787C11.8114 5.97731 11.8019 5.88712 11.79 5.79736C11.7911 5.80521 11.7929 5.81295 11.7939 5.8208ZM2.12305 5.7251C2.13255 5.66204 2.14289 5.59915 2.15527 5.53662C2.1429 5.59915 2.13254 5.66204 2.12305 5.7251ZM11.7461 5.53662C11.7585 5.59916 11.7688 5.66203 11.7783 5.7251C11.7688 5.66203 11.7585 5.59916 11.7461 5.53662ZM2.17578 5.44482C2.18875 5.38631 2.2023 5.32796 2.21777 5.27002C2.20232 5.32796 2.18873 5.38631 2.17578 5.44482ZM11.6836 5.27002C11.6991 5.32797 11.7126 5.3863 11.7256 5.44482C11.7126 5.3863 11.6991 5.32797 11.6836 5.27002ZM2.24316 5.17725C2.25864 5.1242 2.2754 5.07151 2.29297 5.01904C2.27541 5.07152 2.25863 5.1242 2.24316 5.17725ZM11.6045 5.00928C11.6233 5.06504 11.6417 5.12083 11.6582 5.17725C11.6418 5.12083 11.6233 5.06504 11.6045 5.00928ZM11.5029 4.73975C11.5287 4.80185 11.5534 4.86418 11.5762 4.92725C11.5534 4.86417 11.5287 4.80185 11.5029 4.73975ZM2.33105 4.90967C2.3493 4.85975 2.3695 4.81054 2.38965 4.76123C2.36952 4.81055 2.34929 4.85974 2.33105 4.90967ZM13.0684 4.3208C13.1372 4.49764 13.1974 4.67746 13.248 4.85986C13.2236 4.77198 13.1966 4.68481 13.168 4.59814L13.0684 4.3208ZM11.3916 4.49365C11.4207 4.55288 11.4494 4.61209 11.4756 4.67236C11.4494 4.61208 11.4206 4.55289 11.3916 4.49365ZM2.42773 4.66943C2.45353 4.61024 2.48123 4.55183 2.50977 4.49365C2.48124 4.55184 2.45352 4.61024 2.42773 4.66943ZM2.67578 4.18408C2.6296 4.26175 2.58595 4.34055 2.54492 4.42041C2.54778 4.41484 2.55082 4.40937 2.55371 4.40381L2.67578 4.18408ZM12.5273 3.26611C12.6361 3.43357 12.7358 3.60571 12.8262 3.78174L12.9541 4.04834C12.8325 3.77838 12.6897 3.51652 12.5264 3.26514L12.5273 3.26611ZM10.9199 3.73389L11.0703 3.93994C11.0175 3.86306 10.9619 3.7879 10.9043 3.71436C10.9094 3.72092 10.9148 3.72729 10.9199 3.73389ZM3.04492 3.65674C3.08488 3.60737 3.12494 3.558 3.16699 3.51025C3.12492 3.55799 3.08489 3.60737 3.04492 3.65674ZM10.7344 3.51025C10.7764 3.558 10.8165 3.60736 10.8564 3.65674C10.8165 3.60737 10.7765 3.55799 10.7344 3.51025ZM3.25195 3.41846C3.28627 3.38156 3.32087 3.34491 3.35645 3.30908C3.32086 3.34489 3.28629 3.38158 3.25195 3.41846ZM10.5449 3.30908C10.5805 3.34491 10.6151 3.38156 10.6494 3.41846C10.6151 3.38158 10.5805 3.34489 10.5449 3.30908ZM3.4375 3.229C3.48549 3.18297 3.5349 3.13833 3.58496 3.09424C3.53488 3.13831 3.48551 3.18299 3.4375 3.229ZM10.3164 3.09424C10.3665 3.13833 10.4159 3.18297 10.4639 3.229C10.4158 3.183 10.3665 3.13831 10.3164 3.09424ZM3.63086 3.0542C3.68502 3.00772 3.74046 2.96263 3.79688 2.91846C3.74044 2.9626 3.68503 3.00775 3.63086 3.0542ZM10.1045 2.91846C10.1609 2.96262 10.2163 3.00772 10.2705 3.0542C10.2163 3.00775 10.1609 2.9626 10.1045 2.91846ZM12.1738 2.77783L12.3564 3.01807C12.2386 2.85535 12.1119 2.69759 11.9766 2.54541L12.1738 2.77783ZM3.86426 2.86572C3.92003 2.82364 3.97735 2.78345 4.03516 2.74365C3.97734 2.78343 3.92005 2.82366 3.86426 2.86572ZM9.86621 2.74365C9.92403 2.78344 9.98132 2.82364 10.0371 2.86572C9.98131 2.82367 9.92404 2.78342 9.86621 2.74365ZM4.60059 2.40674C4.42421 2.49621 4.25391 2.59544 4.0918 2.70361C4.17109 2.65067 4.25214 2.5998 4.33496 2.55127L4.60059 2.40674ZM1.93848 2.53174C1.89341 2.5821 1.84981 2.63349 1.80664 2.68506C1.84583 2.63823 1.88502 2.59124 1.92578 2.54541L1.93848 2.53174ZM9.0625 2.29346L9.30176 2.40674C9.2202 2.36538 9.13743 2.32643 9.05371 2.28955C9.05665 2.29084 9.05957 2.29216 9.0625 2.29346ZM8.78125 2.1792C8.83151 2.19796 8.88105 2.21845 8.93066 2.23877C8.88105 2.21845 8.83151 2.19796 8.78125 2.1792ZM8.49512 2.08252C8.55282 2.10028 8.61001 2.1194 8.66699 2.13916C8.61001 2.11941 8.55282 2.10028 8.49512 2.08252ZM5.7373 1.9917C5.57526 2.03009 5.4159 2.07774 5.25879 2.13135C5.32043 2.11031 5.38187 2.08853 5.44434 2.06982L5.7373 1.9917ZM8.21875 2.00537C8.28326 2.02139 8.34737 2.03868 8.41113 2.05713C8.34737 2.03868 8.28326 2.02138 8.21875 2.00537ZM7.92969 1.94287C7.99412 1.95505 8.05824 1.96835 8.12207 1.98291C8.05824 1.96835 7.99412 1.95504 7.92969 1.94287ZM7.59863 1.89111C7.67742 1.90085 7.75589 1.91203 7.83398 1.92529C7.75589 1.91204 7.67742 1.90084 7.59863 1.89111ZM3.70996 1.15186C3.65046 1.18345 3.59165 1.21616 3.5332 1.24951C3.59165 1.21616 3.65046 1.18345 3.70996 1.15186ZM4.46484 0.808105C4.34769 0.852891 4.23232 0.901599 4.11816 0.952637C4.13717 0.94414 4.15571 0.934595 4.1748 0.92627L4.46484 0.808105ZM2.08398 6.59814L2.07617 6.35107C2.07637 6.44305 2.07964 6.53489 2.08594 6.62646C2.08529 6.61703 2.08457 6.60759 2.08398 6.59814Z" fill="white"/>
<path d="M7.26953 4.66455C8.00725 4.73254 8.69775 5.03549 9.22168 5.52197C9.81963 6.07721 10.1514 6.82518 10.1514 7.6001V14.1489C9.99245 14.2778 9.78852 14.3501 9.57617 14.3501C9.36382 14.3501 9.1599 14.2778 9.00098 14.1489V7.6001L8.99121 7.40771C8.94357 6.96145 8.73098 6.54519 8.39258 6.23096C8.05496 5.91755 7.61551 5.72682 7.15137 5.68408L6.95117 5.67529C6.41446 5.67529 5.89561 5.87278 5.50977 6.23096C5.12315 6.58996 4.90137 7.08208 4.90137 7.6001V14.1489C4.74245 14.2778 4.53852 14.3501 4.32617 14.3501C4.11382 14.3501 3.9099 14.2778 3.75098 14.1489V7.6001L3.75488 7.45557C3.79337 6.73268 4.11998 6.04261 4.68066 5.52197C5.27936 4.96607 6.09563 4.6499 6.95117 4.6499L7.26953 4.66455ZM3.45898 7.38818C3.45404 7.45853 3.45117 7.52918 3.45117 7.6001C3.45117 7.52918 3.45404 7.45852 3.45898 7.38818ZM5.20117 7.6001C5.20117 7.54934 5.20394 7.49885 5.20898 7.44873C5.20394 7.49885 5.20117 7.54934 5.20117 7.6001ZM8.69238 7.44873C8.69743 7.49888 8.70117 7.54931 8.70117 7.6001C8.70117 7.54931 8.69744 7.49888 8.69238 7.44873ZM5.21582 7.39893C5.22035 7.36518 5.22565 7.33164 5.23242 7.29834C5.22564 7.33164 5.22036 7.36518 5.21582 7.39893ZM8.66992 7.29834C8.67669 7.33159 8.68102 7.36522 8.68555 7.39893C8.68101 7.36522 8.67669 7.33159 8.66992 7.29834ZM5.25195 7.21826C5.25661 7.20038 5.26032 7.18226 5.26562 7.16455C5.26032 7.18226 5.25662 7.20038 5.25195 7.21826ZM8.63574 7.16455C8.64108 7.18235 8.64571 7.20029 8.65039 7.21826C8.6457 7.20029 8.64108 7.18235 8.63574 7.16455ZM5.29492 7.07959C5.30204 7.06005 5.30849 7.04026 5.31641 7.021C5.30849 7.04026 5.30205 7.06005 5.29492 7.07959ZM8.58496 7.021C8.59292 7.04038 8.60026 7.05993 8.60742 7.07959C8.60026 7.05993 8.59293 7.04037 8.58496 7.021ZM5.35059 6.94482C5.36486 6.91474 5.38026 6.8852 5.39648 6.85596C5.38025 6.88519 5.36487 6.91475 5.35059 6.94482ZM8.50586 6.85596C8.52202 6.88508 8.53656 6.91487 8.55078 6.94482C8.53655 6.91488 8.52202 6.88507 8.50586 6.85596ZM5.41504 6.8208C5.43711 6.78326 5.46203 6.74733 5.4873 6.71143C5.46203 6.74732 5.43712 6.78327 5.41504 6.8208ZM8.41504 6.71143C8.44021 6.74719 8.46432 6.78341 8.48633 6.8208C8.46432 6.78342 8.44022 6.74718 8.41504 6.71143ZM5.59766 6.56982C5.56232 6.60984 5.52894 6.65114 5.49805 6.69385C5.52894 6.65113 5.56232 6.60985 5.59766 6.56982ZM6.12695 6.1665C6.07671 6.19141 6.02801 6.21909 5.98047 6.24854L5.8418 6.34326C5.88649 6.30925 5.93266 6.27713 5.98047 6.24756L6.12695 6.1665ZM7.77539 6.1665C7.82549 6.19132 7.87446 6.21823 7.92188 6.24756L8.06055 6.34326C8.01599 6.30935 7.96952 6.27804 7.92188 6.24854L7.77539 6.1665ZM9.42578 5.30225C9.63089 5.4927 9.80862 5.70383 9.95508 5.93115L10.0391 6.06982C9.87804 5.78977 9.67196 5.53084 9.42578 5.30225ZM4.35645 5.41846C4.29311 5.4834 4.23292 5.55058 4.17578 5.61963C4.19795 5.59284 4.22103 5.56672 4.24414 5.54053L4.35645 5.41846ZM5.77148 4.54053C5.6108 4.59399 5.45442 4.65821 5.30371 4.73291L5.1543 4.81104C5.30106 4.72951 5.45374 4.6578 5.61133 4.59717L5.77148 4.54053ZM8.13086 4.54053C8.29185 4.59405 8.44864 4.65807 8.59961 4.73291L8.74805 4.81104C8.60104 4.72934 8.44791 4.6579 8.29004 4.59717L8.13086 4.54053Z" fill="white"/>
</svg>
