<svg width="17" height="16" viewBox="0 0 17 16" fill="none" xmlns="http://www.w3.org/2000/svg">
<path d="M15.7069 7.47408H9.78684L13.9694 3.27775C14.0235 3.22998 14.0673 3.17162 14.0981 3.10628C14.1288 3.04094 14.1458 2.97 14.148 2.89783C14.1503 2.82566 14.1377 2.75379 14.1112 2.68666C14.0846 2.61953 14.0445 2.55856 13.9935 2.5075C13.9424 2.45644 13.8814 2.41639 13.8143 2.3898C13.7472 2.36321 13.6753 2.35066 13.6031 2.35291C13.531 2.35517 13.46 2.37218 13.3947 2.4029C13.3293 2.43363 13.271 2.47741 13.2232 2.53155L9.02688 6.72788V0.794095C9.03211 0.721646 9.02237 0.648894 8.99824 0.580379C8.97412 0.511864 8.93613 0.449055 8.88665 0.395872C8.83718 0.342689 8.77727 0.300272 8.71068 0.271268C8.64408 0.242264 8.57222 0.227295 8.49958 0.227295C8.42694 0.227295 8.35508 0.242264 8.28849 0.271268C8.22189 0.300272 8.16198 0.342689 8.11251 0.395872C8.06303 0.449055 8.02505 0.511864 8.00092 0.580379C7.9768 0.648894 7.96705 0.721646 7.97229 0.794095V6.72788L3.77596 2.53155C3.677 2.43297 3.54294 2.37772 3.40326 2.37798C3.26358 2.37824 3.12972 2.43398 3.03113 2.53293C2.93255 2.63188 2.87731 2.76594 2.87757 2.90562C2.87782 3.04531 2.93356 3.17916 3.03251 3.27775L7.22609 7.47408H1.2923C1.15904 7.48372 1.03436 7.54346 0.943356 7.64128C0.852349 7.73911 0.801758 7.86776 0.801758 8.00138C0.801758 8.13499 0.852349 8.26365 0.943356 8.36147C1.03436 8.4593 1.15904 8.51903 1.2923 8.52867H7.22884L3.03251 12.7222C2.98331 12.7711 2.94426 12.8293 2.91761 12.8933C2.89097 12.9573 2.87725 13.026 2.87725 13.0953C2.87725 13.1647 2.89097 13.2334 2.91761 13.2974C2.94426 13.3614 2.98331 13.4196 3.03251 13.4684C3.13113 13.567 3.26483 13.6223 3.40423 13.6223C3.54364 13.6223 3.67734 13.567 3.77596 13.4684L7.97229 9.27211V15.2059C7.96705 15.2784 7.9768 15.3511 8.00092 15.4196C8.02505 15.4881 8.06303 15.5509 8.11251 15.6041C8.16198 15.6573 8.22189 15.6997 8.28849 15.7287C8.35508 15.7577 8.42694 15.7727 8.49958 15.7727C8.57222 15.7727 8.64408 15.7577 8.71068 15.7287C8.77727 15.6997 8.83718 15.6573 8.88665 15.6041C8.93613 15.5509 8.97412 15.4881 8.99824 15.4196C9.02237 15.3511 9.03211 15.2784 9.02688 15.2059V9.27211L13.2232 13.4684C13.2716 13.5178 13.3295 13.5569 13.3934 13.5834C13.4572 13.6099 13.5258 13.6232 13.5949 13.6226C13.6991 13.6224 13.8009 13.5913 13.8875 13.5334C13.9741 13.4754 14.0416 13.3932 14.0816 13.297C14.1216 13.2008 14.1323 13.0949 14.1124 12.9927C14.0924 12.8904 14.0427 12.7963 13.9694 12.7222L9.78684 8.52867H15.7069C15.8401 8.51903 15.9648 8.4593 16.0558 8.36147C16.1468 8.26365 16.1974 8.13499 16.1974 8.00138C16.1974 7.86776 16.1468 7.73911 16.0558 7.64128C15.9648 7.54346 15.8401 7.48372 15.7069 7.47408Z" fill="white"/>
</svg>
