<svg width="17" height="18" viewBox="0 0 17 18" fill="none" xmlns="http://www.w3.org/2000/svg">
<path fill-rule="evenodd" clip-rule="evenodd" d="M12.7629 1.26015C13.7321 0.290903 15.3035 0.290886 16.2727 1.26011C17.242 2.22929 17.242 3.80064 16.2728 4.76986L10.5379 10.505C10.3278 10.7151 10.0591 10.857 9.767 10.9119L8.01527 11.2413C6.99436 11.4334 6.09977 10.5388 6.29178 9.51786L6.62126 7.76605C6.67619 7.47404 6.818 7.20539 7.02814 6.9952L12.7629 1.26015ZM15.3781 2.15475C14.903 1.67963 14.1327 1.67964 13.6575 2.15476L7.92283 7.88978C7.8928 7.91981 7.87256 7.95819 7.86471 7.99994L7.53517 9.75175C7.50775 9.89759 7.63554 10.0254 7.78138 9.99796L9.53319 9.6685C9.57486 9.66066 9.61332 9.64033 9.64326 9.6103L15.3781 3.87524C15.8532 3.40013 15.8532 2.62984 15.3781 2.15475Z" fill="white"/>
<path fill-rule="evenodd" clip-rule="evenodd" d="M4.53483 1.87605C3.02085 1.87605 1.79353 3.10337 1.79353 4.61734V13.0521C1.79353 14.566 3.02085 15.7934 4.53483 15.7934H12.9696C14.4835 15.7934 15.7109 14.566 15.7109 13.0521V9.67819C15.7109 9.32883 15.9941 9.04559 16.3435 9.04559C16.6928 9.04559 16.9761 9.32883 16.9761 9.67819V13.0521C16.9761 15.2649 15.1823 17.0586 12.9696 17.0586H4.53483C2.3221 17.0586 0.52832 15.2649 0.52832 13.0521V4.61734C0.52832 2.40462 2.3221 0.61084 4.53483 0.61084H7.90872C8.25809 0.61084 8.54133 0.89407 8.54133 1.24345C8.54133 1.59282 8.25809 1.87605 7.90872 1.87605H4.53483Z" fill="white"/>
</svg>
