<svg width="16" height="17" viewBox="0 0 16 17" fill="none" xmlns="http://www.w3.org/2000/svg">
<path d="M0.633973 5.12179C0.847333 5.12179 1.02002 4.95044 1.02268 4.73775V3.19158C1.02268 2.27015 1.77011 1.52274 2.69155 1.52274H4.23775C4.45044 1.52007 4.62179 1.34739 4.62179 1.13404C4.62179 1.03202 4.58112 0.934675 4.50911 0.86268C4.43711 0.790671 4.33909 0.75 4.23775 0.75H2.69156C2.0448 0.751333 1.42406 1.00936 0.966754 1.46674C0.509361 1.92413 0.251331 2.54486 0.25 3.19152V4.73769C0.25 4.83904 0.290672 4.93705 0.362682 5.00905C0.434691 5.08106 0.531968 5.12179 0.633973 5.12179Z" fill="white" stroke="white" stroke-width="0.2"/>
<path d="M4.23782 15.4773H2.69162C1.77018 15.4773 1.02276 14.7299 1.02276 13.8084V12.2622C1.02009 12.0495 0.847408 11.8782 0.634048 11.8782C0.422019 11.8782 0.25 12.0502 0.25 12.2622V13.8084C0.251333 14.4552 0.50936 15.0759 0.966753 15.5332C1.42414 15.9906 2.04489 16.2486 2.69155 16.25H4.23775C4.44978 16.25 4.62179 16.0779 4.62179 15.8659C4.62179 15.6526 4.45051 15.4799 4.23782 15.4773Z" fill="white" stroke="white" stroke-width="0.2"/>
<path d="M15.0336 1.46607C14.5769 1.00736 13.9555 0.749336 13.3081 0.750001H11.762C11.5499 0.750001 11.3779 0.922017 11.3779 1.13404C11.3779 1.3474 11.5493 1.52008 11.762 1.52274H13.3081C13.7502 1.52274 14.1749 1.69875 14.4883 2.01146C14.801 2.32482 14.977 2.74954 14.977 3.19159V4.73775C14.9797 4.95044 15.1523 5.12179 15.3657 5.12179C15.5777 5.12179 15.7497 4.94978 15.7497 4.73775V3.19159C15.7504 2.54419 15.4923 1.92272 15.0336 1.46607Z" fill="white" stroke="white" stroke-width="0.2"/>
<path d="M15.3658 11.8782C15.1524 11.8782 14.9797 12.0495 14.9771 12.2622V13.8084C14.9771 14.2504 14.801 14.6751 14.4883 14.9885C14.175 15.3012 13.7502 15.4772 13.3082 15.4772H11.762C11.5493 15.4799 11.3779 15.6526 11.3779 15.8659C11.3779 16.078 11.5499 16.25 11.762 16.25H13.3082C13.9549 16.2486 14.5757 15.9906 15.033 15.5332C15.4904 15.0758 15.7484 14.4551 15.7497 13.8085V12.2623C15.7497 12.161 15.7091 12.0629 15.637 11.9909C15.565 11.9189 15.4678 11.8782 15.3658 11.8782Z" fill="white" stroke="white" stroke-width="0.2"/>
<path d="M5.21365 7.10903C5.58767 7.05348 5.85189 6.70165 5.80996 6.31416C5.85189 5.92804 5.591 5.57689 5.21831 5.51929C4.84562 5.5769 4.58406 5.92804 4.62665 6.31416C4.58406 6.69822 4.84296 7.04869 5.21365 7.10903Z" fill="white" stroke="white" stroke-width="0.2"/>
<path d="M10.9804 6.31442C10.9804 7.3739 9.78809 7.3739 9.78809 6.31442C9.78809 5.25424 10.9804 5.25424 10.9804 6.31442Z" fill="white" stroke="white" stroke-width="0.2"/>
<path d="M11.6527 9.62281C11.5784 9.54048 11.4773 9.49365 11.3721 9.49365C11.2662 9.49365 11.1651 9.54048 11.0908 9.62281C10.6018 10.1976 9.42771 10.5896 8.19525 10.5896C6.96279 10.5896 5.79907 10.1976 5.29973 9.62281C5.22545 9.54048 5.12434 9.49365 5.01841 9.49365C4.91318 9.49365 4.81139 9.54048 4.7371 9.62281C4.58373 9.79426 4.58373 10.0692 4.7371 10.2399C5.39738 11.008 6.72761 11.4808 8.2098 11.4808C9.69198 11.4808 11.0028 11.0194 11.6681 10.2399C11.8173 10.0647 11.8111 9.78973 11.6529 9.62281H11.6527Z" fill="white" stroke="white" stroke-width="0.2"/>
</svg>
