<svg width="11" height="14" viewBox="0 0 11 14" fill="none" xmlns="http://www.w3.org/2000/svg">
<path d="M9.99974 5.95312C9.99974 3.46784 7.98518 1.45299 5.5 1.45299C3.01482 1.45299 1.00026 3.46772 1.00026 5.95312C1.00026 8.43851 3.01482 10.4532 5.5 10.4532C7.98518 10.4532 9.99974 8.43851 9.99974 5.95312ZM11 5.95312C11 8.99065 8.53726 11.4526 5.5 11.4526C2.46274 11.4526 0 8.99065 0 5.95312C0 2.91559 2.46274 0.452637 5.5 0.452637C8.53726 0.452637 11 2.91559 11 5.95312Z" fill="#6042FF"/>
<path d="M6.41644 5.9531C6.41644 4.60681 6.26603 3.40783 6.0331 2.56108C5.91535 2.13451 5.78471 1.82606 5.66094 1.63479C5.57585 1.50448 5.51998 1.46698 5.49935 1.45666C5.47873 1.46698 5.42286 1.50448 5.33777 1.63479C5.214 1.82605 5.08336 2.13449 4.9656 2.56108C4.73268 3.40766 4.58226 4.60676 4.58226 5.9531C4.58226 7.29847 4.73267 8.49838 4.9656 9.34417C5.08336 9.77074 5.214 10.0792 5.33777 10.2705C5.42286 10.3998 5.47872 10.4373 5.49935 10.4476C5.51998 10.4373 5.57585 10.3998 5.66094 10.2705C5.78471 10.0792 5.91534 9.77076 6.0331 9.34417C6.26603 8.49853 6.41644 7.29849 6.41644 5.9531ZM7.33268 5.9531C7.33268 7.36783 7.17625 8.66903 6.91152 9.6329C6.78001 10.111 6.61326 10.5348 6.40784 10.8498C6.21188 11.1517 5.91105 11.4526 5.49935 11.4526C5.08765 11.4526 4.78682 11.1517 4.59086 10.8498C4.38544 10.5348 4.21869 10.111 4.08718 9.6329C3.82246 8.66913 3.66602 7.36783 3.66602 5.9531C3.66602 4.53745 3.82245 3.23622 4.08718 2.27331C4.21868 1.79517 4.38543 1.37141 4.59086 1.0564C4.78682 0.754518 5.08765 0.452637 5.49935 0.452637C5.91105 0.452637 6.21188 0.754518 6.40784 1.0564C6.61326 1.37141 6.78 1.79517 6.91152 2.27331C7.17624 3.23615 7.33268 4.53745 7.33268 5.9531Z" fill="#6042FF"/>
<path d="M10.4994 5.69067C10.7759 5.69067 11 5.808 11 5.95282C11 6.09715 10.776 6.21448 10.4994 6.21448H0.500589C0.224052 6.21448 0 6.09715 0 5.95282C0 5.80801 0.224049 5.69067 0.500589 5.69067H10.4994Z" fill="#6042FF"/>
<path d="M7.38491 12.5C7.64563 12.5 7.85686 12.7347 7.85686 13.0233C7.85686 13.313 7.64563 13.5476 7.38491 13.5476H3.61453C3.35381 13.5476 3.14258 13.313 3.14258 13.0233C3.14258 12.7347 3.35381 12.5 3.61453 12.5H7.38491Z" fill="#6042FF"/>
</svg>
