<svg width="15" height="15" viewBox="0 0 15 15" fill="none" xmlns="http://www.w3.org/2000/svg">
<path d="M7.5 15C9.48919 15 11.3964 14.2097 12.8034 12.8034C14.2097 11.3965 15 9.48919 15 7.5C15 5.51081 14.2097 3.60356 12.8034 2.19656C11.3965 0.790313 9.48919 0 7.5 0C5.51081 0 3.60356 0.790275 2.19656 2.19656C0.790313 3.60354 0 5.51081 0 7.5C0.00219731 9.48844 0.793219 11.3949 2.19937 12.8006C3.60489 14.2069 5.51137 14.9979 7.5 15ZM7.5 1.11112C9.1941 1.11112 10.8193 1.78421 12.0176 2.98247C13.2159 4.18073 13.889 5.80603 13.889 7.50009C13.889 9.19416 13.2159 10.8194 12.0176 12.0177C10.8194 13.216 9.19406 13.8891 7.5 13.8891C5.80594 13.8891 4.18069 13.216 2.98238 12.0177C1.78406 10.8195 1.11103 9.19416 1.11103 7.50009C1.11323 5.80599 1.78706 4.18228 2.98457 2.98472C4.18208 1.78716 5.80594 1.11332 7.5 1.11112ZM6.17944 6.35081C6.17944 6.04393 6.42846 5.79491 6.73534 5.79491H7.70212C8.00901 5.79491 8.25729 6.04393 8.25729 6.35081V11.9963C8.25729 12.3031 8.00901 12.5514 7.70212 12.5514C7.39524 12.5514 7.14622 12.3031 7.14622 11.9963V6.906H6.73534C6.42846 6.906 6.17944 6.65769 6.17944 6.35081ZM6.59106 3.91331C6.59106 3.54564 6.81225 3.21384 7.15209 3.07322C7.49121 2.93186 7.88231 3.01023 8.14232 3.26951C8.40233 3.52952 8.4807 3.92064 8.34007 4.26049C8.19945 4.60033 7.86767 4.82153 7.49998 4.82153C6.99827 4.82079 6.59177 4.41429 6.59104 3.91258L6.59106 3.91331Z" fill="white"/>
</svg>
