<svg width="15" height="16" viewBox="0 0 15 16" fill="none" xmlns="http://www.w3.org/2000/svg">
<path d="M15 8.00002C15 12.1357 11.6356 15.5 7.49998 15.5C7.27561 15.5 7.05248 15.4862 6.83123 15.4663C6.7681 15.4606 6.70498 15.4544 6.64185 15.4469C6.44248 15.4237 6.24435 15.395 6.04936 15.3563C5.97873 15.3425 5.90936 15.3244 5.83936 15.3081C5.69874 15.2762 5.55936 15.2406 5.42123 15.2006C5.33061 15.1744 5.24061 15.1475 5.15123 15.1175C5.01186 15.0712 4.87435 15.02 4.73811 14.9663C4.62374 14.9206 4.51186 14.8719 4.40061 14.8213C4.28874 14.77 4.17749 14.7175 4.06812 14.6613C3.98687 14.6194 3.90624 14.5769 3.82687 14.5325C3.66061 14.4394 3.49749 14.3413 3.33874 14.2356C3.29812 14.2087 3.25999 14.1787 3.21999 14.1506C3.07812 14.0519 2.93937 13.9481 2.80374 13.8394C2.76186 13.8056 2.72061 13.7725 2.67936 13.7381C2.33936 13.4531 2.02436 13.1375 1.73749 12.7938C1.72312 12.7763 1.70874 12.7594 1.69437 12.7419C1.44063 12.4325 1.20749 12.1031 1.00375 11.7513C0.996247 11.7381 0.996247 11.7238 0.989997 11.71C0.363119 10.6144 0 9.35066 0 8.00058C0 7.72433 0.223743 7.50058 0.499999 7.50058C0.776254 7.50058 0.999997 7.72433 0.999997 8.00058C0.999997 9.56058 1.55312 10.9931 2.47249 12.1143C2.48249 12.1262 2.49186 12.1381 2.50186 12.15C2.75061 12.4493 3.02685 12.725 3.32436 12.9749C3.35811 13.0031 3.39186 13.0306 3.42623 13.0581C3.54623 13.1549 3.66998 13.2468 3.79623 13.335C3.82811 13.3568 3.85873 13.3812 3.89061 13.4025C4.02873 13.495 4.17248 13.5806 4.31811 13.6625C4.38498 13.7 4.45311 13.7362 4.52123 13.7712C4.6181 13.8212 4.71686 13.8681 4.81686 13.9137C4.90936 13.9556 5.00249 13.9968 5.09748 14.0343C5.21811 14.0825 5.3406 14.1281 5.46498 14.1687C5.54123 14.1937 5.61873 14.2168 5.69561 14.2393C5.81623 14.2743 5.9381 14.3056 6.06124 14.3337C6.12124 14.3475 6.17999 14.3625 6.24062 14.375C6.40999 14.4081 6.58186 14.4337 6.75562 14.4537C6.81 14.46 6.86437 14.465 6.91874 14.47C7.10999 14.4868 7.30311 14.4993 7.49874 14.4993C11.0824 14.4993 13.9987 11.583 13.9987 7.99934C14 4.41615 11.0837 1.5 7.50002 1.5C5.04435 1.5 2.84755 2.85563 1.73572 4.99999H4.00003C4.27628 4.99999 4.50003 5.22373 4.50003 5.49999C4.50003 5.77624 4.27628 5.99999 4.00003 5.99999H0.500039C0.223783 5.99999 4.00161e-05 5.77624 4.00161e-05 5.49999V2C4.00161e-05 1.72374 0.223783 1.5 0.500039 1.5C0.776294 1.5 1.00004 1.72374 1.00004 2V4.25679C2.32503 1.9456 4.77507 0.5 7.50002 0.5C11.6357 0.5 15 3.86435 15 8.00002ZM7.49998 4.00003C7.22372 4.00003 6.99998 4.22377 6.99998 4.50003V8.00002C6.99998 8.27627 7.22372 8.50002 7.49998 8.50002H11C11.2762 8.50002 11.5 8.27627 11.5 8.00002C11.5 7.72376 11.2762 7.50002 11 7.50002H7.99998V4.50003C7.99998 4.22377 7.77623 4.00003 7.49998 4.00003Z" fill="white"/>
</svg>
