<svg width="64" height="66" viewBox="0 0 64 66" fill="none" xmlns="http://www.w3.org/2000/svg">
<path d="M27.8242 0.75C36.0088 0.750069 42.668 7.40913 42.668 15.5938C42.6679 23.7783 36.0083 30.4374 27.8242 30.4375C19.6363 30.4375 12.9771 23.778 12.9805 15.5938C12.9805 7.40908 19.6396 0.75 27.8242 0.75ZM27.8242 3.9668C21.4114 3.9668 16.1969 9.18541 16.2002 15.5908C16.2002 22.0002 21.4153 27.2148 27.8242 27.2148C34.2336 27.2148 39.4482 22.0002 39.4482 15.5908C39.4481 9.18156 34.2331 3.96687 27.8242 3.9668Z" fill="white" stroke="white" stroke-width="0.5"/>
<path d="M35.5879 36.3645C36.4771 36.3645 37.1971 37.0847 37.1973 37.9739C37.1973 38.8632 36.4772 39.5842 35.5879 39.5842H21.0625C11.6384 39.5845 3.96998 47.2534 3.96973 56.677V62.3792H35.3672C36.2558 62.3794 36.9766 63.0964 36.9766 63.9895C36.9765 64.8787 36.2564 65.5989 35.3672 65.5989H2.35938C1.47027 65.5987 0.75009 64.8786 0.75 63.9895V56.677L0.756836 56.1536C1.03564 45.1954 10.035 36.3648 21.0625 36.3645H35.5879Z" fill="white" stroke="white" stroke-width="0.5"/>
<path d="M53.166 43.2854C53.7999 42.7711 54.7313 42.8069 55.3203 43.3958L62.9717 51.0471L63.083 51.1692C63.6018 51.8013 63.5641 52.7348 62.9688 53.3264L62.9678 53.3254L55.3174 60.9768L55.3164 60.9778C54.7033 61.5869 53.6735 61.5951 53.0518 60.9856H53.0508C52.4253 60.3682 52.4213 59.3212 53.043 58.6995L57.9463 53.7961H35.3623C34.4732 53.796 33.753 53.0759 33.7529 52.1868C33.7529 51.2976 34.4731 50.5766 35.3623 50.5764H57.9463L53.043 45.6731H53.042C52.4152 45.0423 52.4148 44.024 53.043 43.3958L53.166 43.2854Z" fill="white" stroke="white" stroke-width="0.5"/>
</svg>
