<svg width="19" height="18" viewBox="0 0 19 18" fill="none" xmlns="http://www.w3.org/2000/svg">
<path fill-rule="evenodd" clip-rule="evenodd" d="M13.9887 1.13798C13.6714 0.820682 13.1573 0.820682 12.84 1.13798L1.69532 12.2817C1.30157 12.6763 1.30157 13.3153 1.69532 13.7091L4.79092 16.8047C5.18467 17.1984 5.82364 17.1984 6.21829 16.8047L7.10424 15.9178C7.09545 15.9099 7.08666 15.902 7.07787 15.8932L6.04603 14.8614C5.87025 14.6856 5.87025 14.4008 6.04603 14.2251C6.22181 14.0493 6.50659 14.0493 6.68236 14.2251L7.7142 15.2569C7.72299 15.2657 7.7309 15.2745 7.73881 15.2833L8.82427 14.1987C8.8146 14.1908 8.80582 14.182 8.79703 14.1732L6.7342 12.1104C6.55842 11.9346 6.55842 11.6498 6.7342 11.474C6.90998 11.2983 7.19476 11.2983 7.37053 11.474L9.43336 13.5369C9.44215 13.5457 9.45094 13.5545 9.45885 13.5641L10.5434 12.4787C10.5346 12.4707 10.5259 12.4628 10.5171 12.454L9.48522 11.4222C9.30944 11.2464 9.30944 10.9616 9.48522 10.7859C9.661 10.6101 9.94578 10.6101 10.1216 10.7859L11.1534 11.8177C11.1622 11.8265 11.1701 11.8353 11.178 11.8441L12.2635 10.7595C12.2538 10.7516 12.245 10.7428 12.2362 10.7349L10.1734 8.67119C9.99761 8.49541 9.99761 8.21063 10.1734 8.03486C10.3492 7.85909 10.634 7.85907 10.8097 8.03486L12.8726 10.0977C12.8813 10.1065 12.8901 10.1153 12.898 10.1249L13.9826 9.03947C13.9738 9.03156 13.965 9.02365 13.9563 9.01486L12.9244 7.98302C12.7486 7.80724 12.7486 7.52246 12.9244 7.34669C13.1002 7.17092 13.385 7.1709 13.5607 7.34669L14.5926 8.37853C14.6014 8.38732 14.6093 8.39611 14.6172 8.4049L15.7027 7.32031C15.693 7.31241 15.6842 7.30362 15.6754 7.2957L13.6126 5.232C13.4368 5.05621 13.4368 4.77144 13.6126 4.59567C13.7875 4.41988 14.0731 4.41988 14.2489 4.59567L16.3117 6.65849C16.3205 6.66728 16.3293 6.67607 16.3363 6.68574L17.362 5.66004C17.6793 5.34274 17.6793 4.82859 17.362 4.51129L13.9887 1.13798ZM12.2036 0.50165C12.8725 -0.167217 13.9571 -0.167217 14.626 0.50165L17.9984 3.874C18.6672 4.54286 18.6672 5.62745 17.9984 6.29638L6.85462 17.441C6.10842 18.1863 4.89991 18.1863 4.15458 17.441L1.05899 14.3454C0.313669 13.6001 0.313669 12.3916 1.05899 11.6454L12.2036 0.50165Z" fill="white"/>
</svg>
