<svg width="5" height="13" viewBox="0 0 5 13" fill="none" xmlns="http://www.w3.org/2000/svg">
<path d="M0.879647 1.56897C0.879647 2.43548 1.5821 3.13793 2.44861 3.13793C3.31513 3.13793 4.01758 2.43548 4.01758 1.56897C4.01758 0.70245 3.31513 -3.07051e-08 2.44861 -6.85817e-08C1.5821 -1.06458e-07 0.879647 0.70245 0.879647 1.56897Z" fill="white"/>
<path d="M0.879647 6.49987C0.879647 7.36639 1.5821 8.06884 2.44861 8.06884C3.31513 8.06884 4.01758 7.36639 4.01758 6.49987C4.01758 5.63336 3.31513 4.93091 2.44861 4.93091C1.5821 4.93091 0.879647 5.63336 0.879647 6.49987Z" fill="white"/>
<path d="M0.879647 11.431C0.879647 12.2975 1.5821 13 2.44861 13C3.31513 13 4.01758 12.2975 4.01758 11.431C4.01758 10.5645 3.31513 9.86206 2.44861 9.86206C1.5821 9.86206 0.879647 10.5645 0.879647 11.431Z" fill="white"/>
</svg>
