<svg width="13" height="16" viewBox="0 0 13 16" fill="none" xmlns="http://www.w3.org/2000/svg">
<path d="M12.146 12.847C12.4443 12.5061 12.5935 12.0587 12.5508 11.6113C12.5082 11.1 12.0182 10.4608 11.443 9.71513C11.4004 9.65121 11.3365 9.56599 11.2938 9.52338V6.00804C11.2938 3.51534 9.41899 1.40614 7.03282 1.15048V0.532628C7.03282 0.234356 6.79847 0 6.5002 0C6.20192 0 5.96757 0.234356 5.96757 0.532628V1.15048C4.92362 1.257 3.94358 1.72571 3.1766 2.47139C2.23917 3.38751 1.70655 4.6019 1.70655 5.92282V9.54469C1.66394 9.6086 1.60002 9.67252 1.55741 9.73643C0.982172 10.4821 0.492154 11.1213 0.449544 11.6326C0.406934 12.08 0.55607 12.5274 0.854341 12.8683C1.15261 13.2092 1.57871 13.4009 2.04743 13.4009H10.9956C11.4004 13.3796 11.8265 13.1879 12.146 12.847ZM1.60002 12.1226C1.49349 12.0161 1.45088 11.8669 1.47219 11.7178C1.5148 11.4621 2.15395 10.6526 2.367 10.3756C2.66528 9.9921 2.7505 9.88557 2.7505 9.67252V5.92282C2.7505 4.90018 3.15529 3.94145 3.87967 3.23838C4.58274 2.55661 5.49886 2.19443 6.45759 2.19443C6.5002 2.19443 6.54281 2.19443 6.58542 2.19443C8.56679 2.25834 10.186 3.98406 10.186 6.02935V9.69382C10.186 9.90688 10.2712 10.0134 10.5695 10.3969C10.7825 10.6526 11.4217 11.4621 11.4643 11.7178C11.4856 11.8669 11.4217 12.0161 11.3365 12.1226C11.2299 12.2291 11.1021 12.293 10.9317 12.293H2.00482C1.85568 12.3144 1.70655 12.2504 1.60002 12.1226Z" fill="white"/>
<path d="M7.47997 14.2106C7.33084 14.6367 6.92604 14.9136 6.47863 14.9136C6.03123 14.9136 5.62643 14.6367 5.47729 14.2106C5.37077 13.9336 5.0725 13.7845 4.79553 13.891C4.51856 13.9975 4.36943 14.2958 4.47595 14.5728C4.77422 15.425 5.58382 16.0002 6.47863 16.0002C7.37345 16.0002 8.18304 15.425 8.48131 14.5728C8.58784 14.2958 8.4387 13.9975 8.16174 13.891C7.88477 13.7845 7.5865 13.9336 7.47997 14.2106Z" fill="white"/>
</svg>
