<svg width="15" height="17" viewBox="0 0 15 17" fill="none" xmlns="http://www.w3.org/2000/svg">
<path d="M6.17334 15.0516H9.30416V15.6813C9.30416 15.9951 9.05787 16.251 8.7558 16.251H6.72167C6.41962 16.251 6.17331 15.9952 6.17331 15.6813L6.17334 15.0516ZM14.1457 13.0659C14.0501 13.6984 13.6312 14.2253 13.0523 14.4412C12.9899 14.4647 12.9235 14.4764 12.8571 14.4764H2.61968C2.55329 14.4764 2.48757 14.4647 2.42451 14.4412C1.84562 14.2253 1.42671 13.6984 1.33112 13.0659C1.23552 12.4342 1.4785 11.7989 1.96512 11.4099C1.97043 11.4058 1.9764 11.401 1.98171 11.3968C2.66417 10.8906 2.8713 10.534 2.9888 9.66218L3.66262 4.66373C3.66727 4.62925 3.67457 4.59545 3.68519 4.56235C4.19637 2.92359 5.55329 1.76551 7.16051 1.54004V1.22554C7.16051 0.894471 7.41875 0.625488 7.73807 0.625488C8.05672 0.625488 8.31563 0.893783 8.31563 1.22554V1.54004C9.92417 1.76557 11.2811 2.9236 11.7916 4.56305C11.8022 4.59616 11.8095 4.62995 11.8142 4.66444L12.4887 9.66289C12.6062 10.5347 12.8133 10.8913 13.4958 11.3975C13.5011 11.4017 13.5071 11.4058 13.5124 11.4106C13.999 11.7996 14.242 12.4349 14.1464 13.0666L14.1457 13.0659ZM12.814 12.3659C11.8773 11.6686 11.5062 11.0265 11.3449 9.82913L10.6777 4.88453C10.2488 3.57545 9.07376 2.69951 7.73872 2.69951C6.40301 2.69951 5.22855 3.57545 4.79909 4.88453L4.13256 9.82843C3.97124 11.0265 3.59948 11.6679 2.66342 12.3652C2.44767 12.5424 2.45763 12.7831 2.47223 12.879C2.48551 12.9659 2.53729 13.1646 2.73778 13.2763H12.739C12.9402 13.1646 12.992 12.9659 13.0046 12.879C13.0192 12.7831 13.0291 12.5431 12.8134 12.3652L12.814 12.3659ZM2.2764 1.95934L3.07171 2.6601C3.18059 2.75528 3.3127 2.80218 3.44481 2.80218C3.60878 2.80218 3.77143 2.73045 3.88562 2.59044C4.09208 2.338 4.06155 1.95936 3.81857 1.74484L3.02326 1.04408C2.78028 0.829588 2.41582 0.861299 2.20935 1.11374C2.00287 1.36619 2.03341 1.74483 2.2764 1.95934ZM2.42975 6.51637C2.74841 6.51637 3.00731 6.24808 3.00731 5.91633C3.00731 5.58526 2.74907 5.31628 2.42975 5.31628H1.38615C1.0675 5.31628 0.808594 5.58457 0.808594 5.91633C0.808594 6.24739 1.06683 6.51637 1.38615 6.51637H2.42975ZM14.0912 5.31695H13.047C12.7283 5.31695 12.4694 5.58524 12.4694 5.917C12.4694 6.24806 12.7277 6.51704 13.047 6.51704H14.0912C14.4099 6.51704 14.6688 6.24875 14.6688 5.917C14.6688 5.58593 14.4105 5.31695 14.0912 5.31695ZM12.0319 2.80227C12.1641 2.80227 12.2968 2.75537 12.405 2.66019L13.2003 1.95943C13.4433 1.74494 13.4739 1.36696 13.2674 1.11383C13.0609 0.861391 12.6965 0.829662 12.4535 1.04417L11.6582 1.74493C11.4152 1.95942 11.3847 2.3374 11.5911 2.59053C11.7053 2.73054 11.868 2.80227 12.0319 2.80227Z" fill="white"/>
</svg>
