<svg width="12" height="12" viewBox="0 0 12 12" fill="none" xmlns="http://www.w3.org/2000/svg">
<path d="M5.36552 0.387449C5.63102 -0.12915 6.369 -0.12915 6.63448 0.387449L7.69545 2.45382C8.10471 3.24836 8.75164 3.89529 9.54618 4.30455L11.6126 5.36552C12.1292 5.63102 12.1292 6.369 11.6126 6.63448L9.54618 7.69545C8.75164 8.10471 8.10471 8.75164 7.69545 9.54618L6.63448 11.6126C6.36898 12.1292 5.631 12.1292 5.36552 11.6126L4.30455 9.54618C3.89529 8.75164 3.24836 8.10471 2.45382 7.69545L0.387449 6.63448C-0.12915 6.36898 -0.12915 5.631 0.387449 5.36552L2.45382 4.30455C3.24836 3.89529 3.89529 3.24836 4.30455 2.45382L5.36552 0.387449Z" fill="white"/>
</svg>
