<svg width="18" height="12" viewBox="0 0 18 12" fill="none" xmlns="http://www.w3.org/2000/svg">
<path d="M17.0546 0.648979C17.0061 0.523056 16.9341 0.408267 16.8428 0.311168C16.6584 0.11549 16.4067 0.00361416 16.1428 8.6035e-05C15.8789 -0.00344209 15.6245 0.101666 15.4353 0.292349L6.28396 9.53642L2.37178 5.70104C2.27733 5.6049 2.16533 5.52924 2.04234 5.47848C1.91934 5.42772 1.78782 5.40288 1.65546 5.40541C1.52309 5.40795 1.39255 5.4378 1.27144 5.49323C1.15034 5.54866 1.04112 5.62855 0.950148 5.72824C0.859181 5.82793 0.788298 5.94541 0.741643 6.07382C0.694988 6.20223 0.673496 6.33899 0.678425 6.4761C0.683354 6.61322 0.714603 6.74794 0.770347 6.8724C0.826091 6.99685 0.905211 7.10854 1.00308 7.20094L5.60924 11.7176C5.7961 11.9008 6.04407 12.0019 6.30126 12C6.55845 11.998 6.80495 11.893 6.98919 11.707L16.8247 1.77118C16.9183 1.67655 16.9931 1.56372 17.0448 1.43913C17.0964 1.31455 17.1238 1.18064 17.1255 1.04507C17.1272 0.909494 17.1031 0.774902 17.0546 0.648979Z" fill="white"/>
</svg>
