<svg width="7" height="8" viewBox="0 0 7 8" fill="none" xmlns="http://www.w3.org/2000/svg">
<path d="M3.11742 0.940947V1.38371C2.68033 1.44203 2.26461 1.60811 1.90765 1.86701L1.60559 1.56495C1.57032 1.52843 1.52813 1.4993 1.48148 1.47926C1.43484 1.45922 1.38466 1.44867 1.33389 1.44823C1.28313 1.44779 1.23278 1.45747 1.18579 1.47669C1.1388 1.49592 1.09611 1.52431 1.06021 1.56021C1.02431 1.59611 0.995916 1.6388 0.976691 1.68579C0.957466 1.73278 0.947792 1.78313 0.948233 1.83389C0.948675 1.88466 0.959222 1.93484 0.979261 1.98148C0.999299 2.02813 1.02843 2.07032 1.06495 2.10559L1.36395 2.40459C1.0966 2.75995 0.923506 3.17717 0.86077 3.61742H0.440947C0.33954 3.61742 0.242287 3.6577 0.170582 3.72941C0.0988773 3.80111 0.0585938 3.89836 0.0585938 3.99977C0.0585938 4.10118 0.0988773 4.19843 0.170582 4.27013C0.242287 4.34184 0.33954 4.38212 0.440947 4.38212H0.86077C0.923506 4.82237 1.0966 5.23959 1.36395 5.59495L1.06495 5.89395C0.995298 5.96606 0.956759 6.06264 0.95763 6.16289C0.958501 6.26315 0.998713 6.35904 1.0696 6.42994C1.1405 6.50083 1.23639 6.54104 1.33665 6.54191C1.4369 6.54278 1.53348 6.50424 1.60559 6.43459L1.90459 6.13559C2.25995 6.40294 2.67717 6.57603 3.11742 6.63877V7.05859C3.11742 7.16 3.1577 7.25725 3.22941 7.32896C3.30111 7.40066 3.39836 7.44095 3.49977 7.44095C3.60118 7.44095 3.69843 7.40066 3.77013 7.32896C3.84184 7.25725 3.88212 7.16 3.88212 7.05859V6.63877C4.32237 6.57603 4.73959 6.40294 5.09495 6.13559L5.39395 6.43459C5.42922 6.47111 5.47141 6.50024 5.51806 6.52028C5.56471 6.54032 5.61488 6.55087 5.66565 6.55131C5.71641 6.55175 5.76676 6.54207 5.81375 6.52285C5.86074 6.50362 5.90343 6.47523 5.93933 6.43933C5.97523 6.40343 6.00362 6.36074 6.02285 6.31375C6.04207 6.26676 6.05175 6.21641 6.05131 6.16565C6.05087 6.11488 6.04032 6.06471 6.02028 6.01806C6.00024 5.97141 5.97111 5.92922 5.93459 5.89395L5.63559 5.59495C5.90294 5.23959 6.07603 4.82237 6.13877 4.38212H6.55859C6.66 4.38212 6.75725 4.34184 6.82896 4.27013C6.90066 4.19843 6.94095 4.10118 6.94095 3.99977C6.94095 3.89836 6.90066 3.80111 6.82896 3.72941C6.75725 3.6577 6.66 3.61742 6.55859 3.61742H6.13877C6.07603 3.17717 5.90294 2.75995 5.63559 2.40459L5.93459 2.10559C5.97111 2.07032 6.00024 2.02813 6.02028 1.98148C6.04032 1.93484 6.05087 1.88466 6.05131 1.83389C6.05175 1.78313 6.04207 1.73278 6.02285 1.68579C6.00362 1.6388 5.97523 1.59611 5.93933 1.56021C5.90343 1.52431 5.86074 1.49592 5.81375 1.47669C5.76676 1.45747 5.71641 1.44779 5.66565 1.44823C5.61488 1.44867 5.56471 1.45922 5.51806 1.47926C5.47141 1.4993 5.42922 1.52843 5.39395 1.56495L5.09189 1.86701C4.73493 1.60811 4.31921 1.44203 3.88212 1.38371V0.940947C3.88212 0.83954 3.84184 0.742287 3.77013 0.670582C3.69843 0.598877 3.60118 0.558594 3.49977 0.558594C3.39836 0.558594 3.30111 0.598877 3.22941 0.670582C3.1577 0.742287 3.11742 0.83954 3.11742 0.940947ZM4.85101 2.64853C5.20917 3.00701 5.41036 3.49303 5.41036 3.99977C5.41036 4.50651 5.20917 4.99253 4.85101 5.35101C4.48733 5.69922 4.00327 5.89359 3.49977 5.89359C2.99627 5.89359 2.51221 5.69922 2.14853 5.35101C1.96241 5.17554 1.81339 4.9645 1.71031 4.7304C1.60722 4.49629 1.55216 4.24388 1.5484 3.98811C1.54463 3.73234 1.59223 3.47842 1.68837 3.24138C1.78452 3.00434 1.92726 2.78901 2.10813 2.60813C2.28901 2.42726 2.50434 2.28452 2.74138 2.18837C2.97842 2.09223 3.23234 2.04463 3.48811 2.0484C3.74388 2.05216 3.99629 2.10722 4.2304 2.21031C4.4645 2.31339 4.67554 2.46241 4.85101 2.64853Z" fill="white"/>
</svg>
